HIERARCHY
ROOT Hips
{
	OFFSET	0.00	0.00	0.00
	CHANNELS 6 Xposition Yposition Zposition Zrotation Xrotation Yrotation
	JOINT LeftUpLeg
	{
		OFFSET	 0.126116	-0.014019	-0.065224
		CHANNELS 3 Zrotation Xrotation Yrotation
		JOINT LeftLeg
		{
			OFFSET	 0.000000	 0.000000	 0.569914
			CHANNELS 3 Zrotation Xrotation Yrotation
			JOINT LeftFoot
			{
				OFFSET	 0.000000	 0.000000	 0.544423
				CHANNELS 3 Zrotation Xrotation Yrotation
				JOINT LeftToeBase
				{
					OFFSET	 0.000000	 0.000000	 0.207117
					CHANNELS 3 Zrotation Xrotation Yrotation
					End Site
					{
						OFFSET	 0.000000	 0.000000	 0.207117
					}
				}
			}
		}
	}
	JOINT RightUpLeg
	{
		OFFSET	-0.124023	-0.008373	-0.065224
		CHANNELS 3 Zrotation Xrotation Yrotation
		JOINT RightLeg
		{
			OFFSET	 0.000000	 0.000000	 0.570047
			CHANNELS 3 Zrotation Xrotation Yrotation
			JOINT RightFoot
			{
				OFFSET	 0.000000	 0.000000	 0.544354
				CHANNELS 3 Zrotation Xrotation Yrotation
				JOINT RightToeBase
				{
					OFFSET	 0.000000	 0.000000	 0.207540
					CHANNELS 3 Zrotation Xrotation Yrotation
					End Site
					{
						OFFSET	 0.000000	 0.000000	 0.207540
					}
				}
			}
		}
	}
	JOINT Spine
	{
		OFFSET	 0.000184	-0.007763	 0.117403
		CHANNELS 3 Zrotation Xrotation Yrotation
		JOINT Spine1
		{
			OFFSET	 0.000000	 0.000000	 0.137269
			CHANNELS 3 Zrotation Xrotation Yrotation
			JOINT Spine2
			{
				OFFSET	 0.000000	 0.000000	 0.156879
				CHANNELS 3 Zrotation Xrotation Yrotation
				JOINT LeftShoulder
				{
					OFFSET	 0.080501	-0.002496	 0.160144
					CHANNELS 3 Zrotation Xrotation Yrotation
					JOINT LeftArm
					{
						OFFSET	 0.000000	 0.000000	 0.164363
						CHANNELS 3 Zrotation Xrotation Yrotation
						JOINT LeftForeArm
						{
							OFFSET	 0.000000	 0.000000	 0.364576
							CHANNELS 3 Zrotation Xrotation Yrotation
							JOINT LeftHand
							{
								OFFSET	 0.000000	 0.000000	 0.360812
								CHANNELS 3 Zrotation Xrotation Yrotation
								JOINT LeftHandIndex1
								{
									OFFSET	 0.000000	 0.000000	 0.086006
									CHANNELS 3 Zrotation Xrotation Yrotation
									JOINT LeftHandIndex2
									{
										OFFSET	 0.000000	 0.000000	 0.047236
										CHANNELS 3 Zrotation Xrotation Yrotation
										JOINT LeftHandIndex3
										{
											OFFSET	-0.004284	-0.000551	 0.038166
											CHANNELS 3 Zrotation Xrotation Yrotation
											End Site
											{
												OFFSET	-0.004284	-0.000551	 0.038166
											}
										}
									}
								}
							}
						}
					}
				}
				JOINT Neck
				{
					OFFSET	 0.000000	 0.000000	 0.176489
					CHANNELS 3 Zrotation Xrotation Yrotation
					JOINT Head
					{
						OFFSET	 0.000000	-0.001747	 0.077940
						CHANNELS 3 Zrotation Xrotation Yrotation
						End Site
						{
							OFFSET	 0.000000	-0.001747	 0.077940
						}
					}
				}
				JOINT RightShoulder
				{
					OFFSET	-0.080363	 0.000306	 0.159706
					CHANNELS 3 Zrotation Xrotation Yrotation
					JOINT RightArm
					{
						OFFSET	 0.000000	 0.000000	 0.164196
						CHANNELS 3 Zrotation Xrotation Yrotation
						JOINT RightForeArm
						{
							OFFSET	 0.000000	 0.000000	 0.365611
							CHANNELS 3 Zrotation Xrotation Yrotation
							JOINT RightHand
							{
								OFFSET	 0.000000	 0.000000	 0.360648
								CHANNELS 3 Zrotation Xrotation Yrotation
								JOINT RightHandIndex1
								{
									OFFSET	 0.000000	 0.000000	 0.069977
									CHANNELS 3 Zrotation Xrotation Yrotation
									JOINT RightHandIndex2
									{
										OFFSET	 0.000000	 0.000000	 0.052305
										CHANNELS 3 Zrotation Xrotation Yrotation
										JOINT RightHandIndex3
										{
											OFFSET	 0.009002	-0.000782	 0.042196
											CHANNELS 3 Zrotation Xrotation Yrotation
											End Site
											{
												OFFSET	 0.009002	-0.000782	 0.042196
											}
										}
									}
								}
							}
						}
					}
				}
			}
		}
	}
}
MOTION
Frames:    6
Frame Time: 0.03333334
-0.000816	 0.049997	 1.277461	-0.013683	 3.547709	 0.524986	 7.230747	-7.061430	 177.955200	 2.154912	-12.317290	 0.548910	 0.138028	 69.713910	-0.226711	-2.385833	 28.452750	 0.000004	 0.086680	-6.518864	-178.154200	-0.780860	-10.756540	 0.816272	 4.645574	 68.771610	 1.712772	 2.384659	 28.388700	-0.000001	-14.369740	 7.184245	 1.562641	-3.245429	-5.042588	-0.269591	 9.788105	 8.803271	-1.013991	-90.951710	 68.307930	-177.358600	-7.313197	 5.120464	-28.586570	 20.944410	 0.156814	-3.568402	-13.755640	-36.424590	-8.773579	-2.027600	 6.559038	 9.033609	-5.188889	 0.308190	 3.541030	-5.234859	 0.342567	 0.430617	 4.707120	 21.864680	-7.945144	 5.305775	-16.606150	 2.365422	 88.679850	 66.381560	 176.745500	 6.891906	 9.734526	 5.859117	-20.893260	-9.442631	 38.815990	 10.858640	-35.496870	 9.582329	 1.803333	 3.979147	-15.098590	 4.898592	 3.004813	-9.310344	 5.224449	 0.395017	 2.014677
-0.001900	 0.060341	 1.277463	 0.114498	 5.195203	 0.662684	 7.309052	-9.933530	 177.995700	 2.238761	-13.308850	 0.594262	 1.007554	 69.385590	-1.220583	-2.385833	 28.452760	 0.000004	-0.432344	-9.138351	-178.394800	-0.955090	-11.317380	 0.823907	 3.917359	 68.192960	 2.710210	 2.384659	 28.388700	-0.000001	-20.181220	 8.042397	 1.693565	-3.279355	-5.927003	-0.173032	 9.679511	 10.907210	-1.417733	-90.827010	 66.765760	-177.237400	-5.065879	 7.835646	-33.235310	 16.008800	 0.716288	-5.911169	-18.968270	-43.692310	-15.070320	-2.027600	 6.559038	 9.033609	-5.188889	 0.308190	 3.541030	-5.234859	 0.342567	 0.430617	 4.590971	 25.252670	-8.763810	 5.958038	-19.410000	 2.555905	 88.410710	 63.697530	 176.455700	 3.860111	 12.177830	 9.103695	-17.994380	-6.637380	 41.284380	 13.734060	-41.879680	 13.538630	 1.803333	 3.979147	-15.098590	 4.898592	 3.004813	-9.310344	 5.224449	 0.395017	 2.014677
-0.002820	 0.073580	 1.277685	 0.346894	 7.415081	 0.753372	 7.066076	-13.580970	 178.156500	 2.102725	-14.253460	 0.620649	 2.246903	 68.723210	-2.588145	-2.385832	 28.452790	-0.000001	-1.094111	-12.512590	-178.653300	-1.385549	-11.732650	 0.765781	 3.183836	 67.346530	 4.001337	 2.384659	 28.388700	-0.000001	-25.468230	 8.830587	 1.739984	-3.167185	-6.057896	 0.094564	 9.316334	 12.261070	-1.778272	-91.114380	 65.245390	-178.220900	-2.954854	 9.939460	-37.045200	 10.393300	 1.562077	-8.187146	-27.080580	-48.527400	-23.605870	-2.027600	 6.559038	 9.033609	-5.188889	 0.308190	 3.541030	-5.234859	 0.342567	 0.430617	 4.037745	 26.728780	-8.799600	 6.291373	-20.959840	 2.521379	 88.635310	 61.486720	 177.282400	 0.081366	 13.950680	 11.435380	-14.813770	-3.460745	 44.613590	 17.947690	-46.511280	 19.292920	 1.803333	 3.979147	-15.098590	 4.898592	 3.004813	-9.310344	 5.224449	 0.395017	 2.014677
-0.003684	 0.091249	 1.276901	 0.712972	 10.560520	 0.713154	 6.691863	-18.743350	 178.556300	 2.036365	-15.840490	 0.669924	 3.948976	 67.946810	-4.527197	-2.385832	 28.452790	-0.000001	-1.767339	-17.610190	-178.893700	-1.659088	-13.221270	 0.798497	 2.127892	 66.816920	 5.522734	 2.384659	 28.388700	-0.000001	-30.581010	 9.585850	 1.759024	-2.914491	-5.927121	 0.348056	 8.750178	 12.990330	-1.795741	-92.144010	 64.935260	 179.025500	-0.927616	 13.103980	-39.463220	 5.902391	 2.786411	-10.581690	-35.530770	-50.681040	-32.593680	-2.027600	 6.559038	 9.033609	-5.188889	 0.308190	 3.541030	-5.234859	 0.342567	 0.430617	 3.357883	 26.105330	-8.881622	 6.356666	-21.357240	 2.408705	 89.616650	 60.543900	 179.620400	-4.556652	 17.334050	 13.465530	-11.648820	 0.385595	 47.726950	 23.474160	-49.546070	 26.127730	 1.803333	 3.979147	-15.098590	 4.898592	 3.004813	-9.310344	 5.224449	 0.395017	 2.014677
-0.006451	 0.110520	 1.275528	 1.718906	 15.290120	 0.789417	 5.381962	-25.830470	 178.585600	 2.634968	-18.133600	 0.950544	 5.180392	 67.512000	-6.703177	-2.385833	 28.452760	 0.000004	-3.098022	-24.367470	-179.579500	-1.442569	-15.502800	 0.991231	 0.017756	 66.671440	 7.755455	 2.384659	 28.388700	-0.000001	-34.781640	 9.847959	 1.625915	-2.879025	-4.752344	 0.432290	 7.887235	 12.099770	-1.679388	-93.284790	 65.261630	 175.942400	 0.629531	 15.014560	-40.932010	 2.766822	 4.245751	-12.758730	-40.255480	-49.984780	-37.990440	-2.027600	 6.559038	 9.033609	-5.188889	 0.308190	 3.541030	-5.234859	 0.342567	 0.430617	 2.790718	 24.619180	-8.651333	 6.141466	-21.382720	 2.149195	 90.856190	 60.475650	-177.541000	-9.441891	 21.032740	 16.550880	-8.634180	 4.576688	 51.176160	 28.419510	-49.679210	 31.627580	 1.803333	 3.979147	-15.098590	 4.898592	 3.004813	-9.310344	 5.224449	 0.395017	 2.014677
-0.010933	 0.130269	 1.274568	 3.462489	 20.662390	 0.685585	 2.947682	-33.062500	 178.102900	 3.583034	-19.237810	 1.319732	 5.285099	 65.815410	-8.116440	-2.385833	 28.452760	 0.000004	-5.226790	-31.425760	 179.346400	-1.753679	-17.387510	 1.014895	-1.589113	 65.527020	 10.082810	 2.384659	 28.388700	-0.000001	-37.642750	 9.664585	 1.302864	-3.130060	-2.297330	 0.645344	 6.824379	 10.013730	-1.985703	-94.150250	 65.889510	 173.415300	 1.578110	 15.577140	-42.508920	 0.075234	 5.777880	-14.583150	-41.574990	-47.235820	-39.588550	-2.027600	 6.559038	 9.033609	-5.188889	 0.308190	 3.541030	-5.234859	 0.342567	 0.430617	 2.320151	 23.882440	-7.272313	 5.638504	-22.061610	 1.520178	 91.971210	 61.317100	-174.845200	-13.400460	 24.106770	 21.169650	-6.758146	 8.168198	 54.200880	 30.393220	-46.992090	 33.635270	 1.803333	 3.979147	-15.098590	 4.898592	 3.004813	-9.310344	 5.224449	 0.395017	 2.014677
